<?xml version="1.0" standalone="no"?>
<!DOCTYPE svg PUBLIC "-//W3C//DTD SVG 20010904//EN"
 "http://www.w3.org/TR/2001/REC-SVG-20010904/DTD/svg10.dtd">
<svg version="1.0" xmlns="http://www.w3.org/2000/svg"
 width="90.000000pt" height="90.000000pt" viewBox="0 0 90.000000 90.000000"
 preserveAspectRatio="xMidYMid meet">
<metadata>
Created by potrace 1.11, written by Peter Selinger 2001-2013
</metadata>
<g transform="translate(0.000000,90.000000) scale(0.100000,-0.100000)"
fill="#000000" stroke="none">
<path d="M0 450 l0 -450 450 0 450 0 0 450 0 450 -450 0 -450 0 0 -450z m264
338 c12 -17 16 -50 16 -142 l0 -119 23 21 c114 107 317 44 363 -114 52 -179
-57 -333 -237 -334 -113 0 -198 58 -234 161 -12 32 -15 97 -15 285 0 221 2
244 18 253 27 16 50 13 66 -11z"/>
<path d="M384 509 c-48 -14 -101 -79 -109 -133 -17 -112 77 -211 180 -192 54
10 112 67 123 122 27 127 -78 237 -194 203z"/>
</g>
</svg>
